<svg width="83" height="20" viewBox="0 0 83 20" fill="none" xmlns="http://www.w3.org/2000/svg">
<path d="M0.793 19L7.969 2.9H11.649L18.848 19H14.938L9.05 4.786H10.522L4.611 19H0.793ZM4.381 15.55L5.37 12.721H13.65L14.662 15.55H4.381ZM24.3161 19.184C23.2581 19.184 22.2384 19.0613 21.2571 18.816C20.2911 18.5553 19.5244 18.2333 18.9571 17.85L20.1531 15.274C20.7204 15.6267 21.3874 15.918 22.1541 16.148C22.9361 16.3627 23.7027 16.47 24.4541 16.47C25.2821 16.47 25.8647 16.3703 26.2021 16.171C26.5547 15.9717 26.7311 15.6957 26.7311 15.343C26.7311 15.0517 26.5931 14.837 26.3171 14.699C26.0564 14.5457 25.7037 14.4307 25.2591 14.354C24.8144 14.2773 24.3237 14.2007 23.7871 14.124C23.2657 14.0473 22.7367 13.9477 22.2001 13.825C21.6634 13.687 21.1727 13.4877 20.7281 13.227C20.2834 12.9663 19.9231 12.6137 19.6471 12.169C19.3864 11.7243 19.2561 11.1493 19.2561 10.444C19.2561 9.662 19.4784 8.972 19.9231 8.374C20.3831 7.776 21.0424 7.30833 21.9011 6.971C22.7597 6.61833 23.7871 6.442 24.9831 6.442C25.8264 6.442 26.6851 6.534 27.5591 6.718C28.4331 6.902 29.1614 7.17033 29.7441 7.523L28.5481 10.076C27.9501 9.72333 27.3444 9.48567 26.7311 9.363C26.1331 9.225 25.5504 9.156 24.9831 9.156C24.1857 9.156 23.6031 9.26333 23.2351 9.478C22.8671 9.69267 22.6831 9.96867 22.6831 10.306C22.6831 10.6127 22.8134 10.8427 23.0741 10.996C23.3501 11.1493 23.7104 11.272 24.1551 11.364C24.5997 11.456 25.0827 11.5403 25.6041 11.617C26.1407 11.6783 26.6774 11.778 27.2141 11.916C27.7507 12.054 28.2337 12.2533 28.6631 12.514C29.1077 12.7593 29.4681 13.1043 29.7441 13.549C30.0201 13.9783 30.1581 14.5457 30.1581 15.251C30.1581 16.0177 29.9281 16.7 29.4681 17.298C29.0081 17.8807 28.3411 18.3407 27.4671 18.678C26.6084 19.0153 25.5581 19.184 24.3161 19.184ZM39.8928 6.442C40.8742 6.442 41.7482 6.64133 42.5148 7.04C43.2968 7.42333 43.9102 8.02133 44.3548 8.834C44.7995 9.63133 45.0218 10.6587 45.0218 11.916V19H41.4338V12.468C41.4338 11.4713 41.2115 10.7353 40.7668 10.26C40.3375 9.78467 39.7242 9.547 38.9268 9.547C38.3595 9.547 37.8458 9.66967 37.3858 9.915C36.9412 10.145 36.5885 10.5053 36.3278 10.996C36.0825 11.4867 35.9598 12.1153 35.9598 12.882V19H32.3718V1.934H35.9598V10.053L35.1548 9.018C35.5995 8.19 36.2358 7.55367 37.0638 7.109C37.8918 6.66433 38.8348 6.442 39.8928 6.442ZM53.4952 19.184C52.4678 19.184 51.5478 18.9847 50.7352 18.586C49.9378 18.1873 49.3168 17.5817 48.8722 16.769C48.4275 15.941 48.2052 14.8907 48.2052 13.618V6.626H51.7932V13.089C51.7932 14.1163 52.0078 14.8753 52.4372 15.366C52.8818 15.8413 53.5028 16.079 54.3002 16.079C54.8522 16.079 55.3428 15.964 55.7722 15.734C56.2015 15.4887 56.5388 15.1207 56.7842 14.63C57.0295 14.124 57.1522 13.4953 57.1522 12.744V6.626H60.7402V19H57.3362V15.596L57.9572 16.585C57.5432 17.4437 56.9298 18.0953 56.1172 18.54C55.3198 18.9693 54.4458 19.184 53.4952 19.184ZM64.0642 19V6.626H67.6522V19H64.0642ZM65.8582 4.901C65.1989 4.901 64.6622 4.70933 64.2482 4.326C63.8342 3.94267 63.6272 3.46733 63.6272 2.9C63.6272 2.33267 63.8342 1.85733 64.2482 1.474C64.6622 1.09067 65.1989 0.898999 65.8582 0.898999C66.5175 0.898999 67.0542 1.083 67.4682 1.451C67.8822 1.80367 68.0892 2.26367 68.0892 2.831C68.0892 3.429 67.8822 3.92733 67.4682 4.326C67.0695 4.70933 66.5329 4.901 65.8582 4.901ZM69.4182 19L74.9612 11.732L74.8922 13.71L69.5792 6.626H73.6042L76.9622 11.249L75.4442 11.295L78.9172 6.626H82.7352L77.3992 13.641V11.709L82.9192 19H78.8482L75.3292 14.078L76.8242 14.285L73.3282 19H69.4182Z" fill="white"/>
</svg>
